<svg id="svg" version="1.1" xmlns="http://www.w3.org/2000/svg" xmlns:xlink="http://www.w3.org/1999/xlink" width="400" height="240" viewBox="0, 0, 400,240"><g id="svgg"><path id="path0" d="M0.000 150.000 L 0.000 180.000 200.000 180.000 L 400.000 180.000 400.000 150.000 L 400.000 120.000 200.000 120.000 L 0.000 120.000 0.000 150.000 " stroke="none" fill="#9c5cd4" fill-rule="evenodd"/><path id="path1" d="M0.000 90.000 L 0.000 120.000 200.000 120.000 L 400.000 120.000 400.000 90.000 L 400.000 60.000 200.000 60.000 L 0.000 60.000 0.000 90.000 " stroke="none" fill="#fcfcfc" fill-rule="evenodd"/><path id="path2" d="M0.000 30.000 L 0.000 60.000 200.000 60.000 L 400.000 60.000 400.000 30.000 L 400.000 0.000 200.000 0.000 L 0.000 0.000 0.000 30.000 " stroke="none" fill="#fcf434" fill-rule="evenodd"/><path id="path3" d="M0.000 210.000 L 0.000 240.000 200.000 240.000 L 400.000 240.000 400.000 210.000 L 400.000 180.000 200.000 180.000 L 0.000 180.000 0.000 210.000 " stroke="none" fill="#2c2c2c" fill-rule="evenodd"/></g></svg>